<svg id="b11a281c-2681-43e0-8921-c9b8dde13e4c" data-name="Layer 1" xmlns="http://www.w3.org/2000/svg" viewBox="0 0 100 100"><path d="M84.26,17.67V71.89H71.35C62.54,71.89,54.08,74,50,81.77a15.91,15.91,0,0,0-1.26-2l1.26,0V27.56c4.08-7.75,12.54-9.89,21.35-9.89Z" fill="#d3daea"/><path d="M50,28.19v51.5l-1.26,0c-4.41-6.09-12.12-7.84-20.09-7.84H15.74V17.67h8.4V32.6l5.25-4,5.29,4V18.15h.55c6.24,1,11.73,3.63,14.77,9.41Z" fill="#d3daea"/><polygon points="34.68 18.15 34.68 32.6 29.39 28.59 24.14 32.6 24.14 17.67 24.14 15.9 34.68 15.9 34.68 18.15" fill="#d3daea"/><path d="M50,27.56c4.08-7.75,12.54-9.89,21.35-9.89H84.26V71.89H71.35C62.54,71.89,54.08,74,50,81.77" fill="none" stroke="#010101" stroke-linecap="round" stroke-linejoin="round" stroke-width="1.53"/><path d="M23.55,17.67H15.74V71.89H28.65c8,0,15.68,1.75,20.09,7.84a15.91,15.91,0,0,1,1.26,2" fill="none" stroke="#010101" stroke-linecap="round" stroke-linejoin="round" stroke-width="1.53"/><path d="M50,27.56c-3-5.78-8.53-8.44-14.77-9.41" fill="none" stroke="#010101" stroke-linecap="round" stroke-linejoin="round" stroke-width="1.53"/><line x1="50" y1="28.19" x2="50" y2="79.69" fill="none" stroke="#010101" stroke-linecap="round" stroke-linejoin="round" stroke-width="1.53"/><polygon points="34.68 18.15 34.68 32.6 29.39 28.59 24.14 32.6 24.14 17.67 24.14 15.9 34.68 15.9 34.68 18.15" fill="none" stroke="#010101" stroke-linecap="round" stroke-linejoin="round" stroke-width="1.53"/><path d="M92.65,25.54V80H61.36s-1.74,4.08-3.89,4.08H42.53c-2.16,0-3.89-4.08-3.89-4.08H7.35V25.54" fill="none" stroke="#010101" stroke-linecap="round" stroke-linejoin="round" stroke-width="1.53"/><path d="M20.88,37.05s12.26-1.72,23.84,3.6" fill="none" stroke="#010101" stroke-linecap="round" stroke-linejoin="round" stroke-width="1.53"/><path d="M20.88,44.6s12.26-1.72,23.84,3.6" fill="none" stroke="#010101" stroke-linecap="round" stroke-linejoin="round" stroke-width="1.53"/><path d="M20.88,52.15s12.26-1.71,23.84,3.6" fill="none" stroke="#010101" stroke-linecap="round" stroke-linejoin="round" stroke-width="1.53"/><path d="M20.88,59.7S33.14,58,44.72,63.3" fill="none" stroke="#010101" stroke-linecap="round" stroke-linejoin="round" stroke-width="1.53"/><path d="M78,37.05s-12.26-1.72-23.83,3.6" fill="none" stroke="#010101" stroke-linecap="round" stroke-linejoin="round" stroke-width="1.53"/><path d="M69.19,28.89a44.24,44.24,0,0,0-15,3.71" fill="none" stroke="#010101" stroke-linecap="round" stroke-linejoin="round" stroke-width="1.53"/><path d="M78,44.6s-12.26-1.72-23.83,3.6" fill="none" stroke="#010101" stroke-linecap="round" stroke-linejoin="round" stroke-width="1.53"/><path d="M78,52.15s-12.26-1.71-23.83,3.6" fill="none" stroke="#010101" stroke-linecap="round" stroke-linejoin="round" stroke-width="1.53"/><path d="M78,59.7S65.73,58,54.16,63.3" fill="none" stroke="#010101" stroke-linecap="round" stroke-linejoin="round" stroke-width="1.53"/></svg>