<svg id="fd0c3284-ad18-455e-a220-86bc5a874e23" data-name="Layer 1" xmlns="http://www.w3.org/2000/svg" viewBox="0 0 100 100"><path d="M75.51,73.65c-8.81,0-17.27,2.13-21.35,9.88a15.91,15.91,0,0,0-1.26-2l1.26,0V29.32c4.08-7.75,12.54-9.89,21.35-9.89H88.42V73.65Z" fill="#e9ecf3"/><path d="M54.16,30v51.5l-1.26,0c-4.41-6.09-12.12-7.84-20.09-7.84H19.9V19.43h8.4V34.36l5.25-4,5.29,4V19.91h.55c6.24,1,11.73,3.63,14.77,9.41Z" fill="#e9ecf3"/><polygon points="37.46 19.43 37.46 33.88 32.17 29.88 26.92 33.88 26.92 18.95 26.92 17.18 37.46 17.18 37.46 19.43" fill="#4688c8"/><path d="M50,27.56c4.08-7.75,12.54-9.9,21.35-9.9H84.26V71.89H71.35C62.54,71.89,54.08,74,50,81.76" fill="none" stroke="#010101" stroke-linecap="round" stroke-linejoin="round" stroke-width="1.53"/><path d="M23.55,17.66H15.74V71.89H28.65c8,0,15.68,1.75,20.09,7.84a15.12,15.12,0,0,1,1.26,2" fill="none" stroke="#010101" stroke-linecap="round" stroke-linejoin="round" stroke-width="1.53"/><path d="M50,27.56c-3-5.79-8.53-8.45-14.77-9.41" fill="none" stroke="#010101" stroke-linecap="round" stroke-linejoin="round" stroke-width="1.53"/><line x1="50" y1="28.18" x2="50" y2="79.68" fill="none" stroke="#010101" stroke-linecap="round" stroke-linejoin="round" stroke-width="1.53"/><polygon points="34.68 18.14 34.68 32.59 29.39 28.59 24.14 32.59 24.14 17.66 24.14 15.89 34.68 15.89 34.68 18.14" fill="none" stroke="#010101" stroke-linecap="round" stroke-linejoin="round" stroke-width="1.53"/><path d="M92.65,25.53V80H61.36s-1.74,4.08-3.89,4.08H42.53c-2.16,0-3.89-4.08-3.89-4.08H7.35V25.53" fill="none" stroke="#010101" stroke-linecap="round" stroke-linejoin="round" stroke-width="1.53"/><path d="M20.88,37.05s12.26-1.73,23.84,3.6" fill="none" stroke="#010101" stroke-linecap="round" stroke-linejoin="round" stroke-width="1.53"/><path d="M20.88,44.59s12.26-1.71,23.84,3.6" fill="none" stroke="#010101" stroke-linecap="round" stroke-linejoin="round" stroke-width="1.53"/><path d="M20.88,52.15s12.26-1.72,23.84,3.59" fill="none" stroke="#010101" stroke-linecap="round" stroke-linejoin="round" stroke-width="1.53"/><path d="M20.88,59.69S33.14,58,44.72,63.3" fill="none" stroke="#010101" stroke-linecap="round" stroke-linejoin="round" stroke-width="1.53"/><path d="M78,37.05s-12.26-1.73-23.83,3.6" fill="none" stroke="#010101" stroke-linecap="round" stroke-linejoin="round" stroke-width="1.53"/><path d="M69.19,28.89a44,44,0,0,0-15,3.7" fill="none" stroke="#010101" stroke-linecap="round" stroke-linejoin="round" stroke-width="1.53"/><path d="M78,44.59s-12.26-1.71-23.83,3.6" fill="none" stroke="#010101" stroke-linecap="round" stroke-linejoin="round" stroke-width="1.53"/><path d="M78,52.15s-12.26-1.72-23.83,3.59" fill="none" stroke="#010101" stroke-linecap="round" stroke-linejoin="round" stroke-width="1.53"/><path d="M78,59.69S65.73,58,54.16,63.3" fill="none" stroke="#010101" stroke-linecap="round" stroke-linejoin="round" stroke-width="1.53"/></svg>