<svg id="bccb5afe-28ce-4d91-b29e-327ada7dd3a4" data-name="Layer 1" xmlns="http://www.w3.org/2000/svg" viewBox="0 0 100 100"><path d="M76.91,35.2V83.63H35.2V71.52H23.09V35.2Zm-9,30.36v-.15a3.69,3.69,0,0,0-3.69-3.68H58.33L53.18,54l2.57-3.85a3.73,3.73,0,0,0,.61-2v-.74a3.69,3.69,0,0,0-3.68-3.69h-.15a3.69,3.69,0,0,0-3.69,3.69v.74a3.66,3.66,0,0,0,.62,2L52,54l-5.16,7.74H41a3.69,3.69,0,0,0-3.69,3.68v.15a3.69,3.69,0,0,0,6.76,2l3.28-4.93H57.82l3.29,4.93a3.68,3.68,0,0,0,6.75-2Z" fill="#d3daea"/><path d="M67.86,65.41v.15a3.68,3.68,0,0,1-6.75,2l-3.29-4.93H47.38L44.1,67.61a3.69,3.69,0,0,1-6.76-2v-.15A3.69,3.69,0,0,1,41,61.73h5.84L52,54l-2.57-3.85a3.66,3.66,0,0,1-.62-2v-.74a3.69,3.69,0,0,1,3.69-3.69h.15a3.69,3.69,0,0,1,3.68,3.69v.74a3.73,3.73,0,0,1-.61,2L53.18,54l5.15,7.74h5.84A3.69,3.69,0,0,1,67.86,65.41Zm-1,.15v-.15a2.73,2.73,0,0,0-2.73-2.73H59l2.93,4.4a2.73,2.73,0,0,0,5-1.52Zm-9.72-3.83L52.6,54.86,48,61.73ZM55.41,48.09v-.74a2.73,2.73,0,0,0-2.73-2.73h-.15a2.73,2.73,0,0,0-2.73,2.73v.74a2.73,2.73,0,0,0,.45,1.52l2.35,3.52L55,49.61A2.74,2.74,0,0,0,55.41,48.09Zm-12.11,19,2.93-4.4H41a2.74,2.74,0,0,0-2.73,2.73v.15a2.73,2.73,0,0,0,5,1.52Z" fill="#010101"/><path d="M66.9,65.41v.15a2.73,2.73,0,0,1-5,1.52L59,62.68h5.2A2.73,2.73,0,0,1,66.9,65.41Z" fill="#d3daea"/><polygon points="52.6 54.87 57.18 61.73 48.02 61.73 52.6 54.87" fill="#d3daea"/><path d="M55.41,47.35v.74A2.74,2.74,0,0,1,55,49.61L52.6,53.13l-2.35-3.52a2.73,2.73,0,0,1-.45-1.52v-.74a2.73,2.73,0,0,1,2.73-2.73h.15A2.73,2.73,0,0,1,55.41,47.35Z" fill="#d3daea"/><path d="M46.23,62.68l-2.93,4.4a2.73,2.73,0,0,1-5-1.52v-.15A2.74,2.74,0,0,1,41,62.68Z" fill="#d3daea"/><polygon points="35.2 71.53 35.2 83.64 23.09 71.53 35.2 71.53" fill="#d3daea"/><path d="M68.83,8.29V21.74a2.69,2.69,0,0,0,2.7,2.69H85Z" fill="none" stroke="#010101" stroke-linecap="round" stroke-linejoin="round" stroke-width="1.53"/><path d="M68.83,8.29H17.71A2.68,2.68,0,0,0,15,11V89a2.68,2.68,0,0,0,2.69,2.69H82.29A2.68,2.68,0,0,0,85,89V24.43" fill="none" stroke="#010101" stroke-linecap="round" stroke-linejoin="round" stroke-width="1.53"/><path d="M33.85,23.09V15h4a1.32,1.32,0,0,1,1.34,1.35v5.38a1.32,1.32,0,0,1-1.34,1.35Z" fill="none" stroke="#010101" stroke-linecap="round" stroke-linejoin="round" stroke-width="1.53"/><path d="M23.09,19.05V15h4a1.32,1.32,0,0,1,1.34,1.35V17.7a1.32,1.32,0,0,1-1.34,1.35Z" fill="none" stroke="#010101" stroke-linecap="round" stroke-linejoin="round" stroke-width="1.53"/><line x1="23.09" y1="23.09" x2="23.09" y2="19.05" fill="none" stroke="#010101" stroke-linecap="round" stroke-linejoin="round" stroke-width="1.53"/><polyline points="44.62 23.09 44.62 19.05 44.62 15.02 50 15.02" fill="none" stroke="#010101" stroke-linecap="round" stroke-linejoin="round" stroke-width="1.53"/><line x1="44.62" y1="19.05" x2="50" y2="19.05" fill="none" stroke="#010101" stroke-linecap="round" stroke-linejoin="round" stroke-width="1.53"/><polygon points="35.2 83.64 35.2 71.53 23.09 71.53 35.2 83.64" fill="none" stroke="#010101" stroke-linecap="round" stroke-linejoin="round" stroke-width="1.53"/><polyline points="35.2 83.64 76.91 83.64 76.91 35.2 23.09 35.2 23.09 71.53" fill="none" stroke="#010101" stroke-linecap="round" stroke-linejoin="round" stroke-width="1.53"/><path d="M64.17,69.25a3.66,3.66,0,0,1-3.06-1.64l-3.29-4.93H47.38L44.1,67.61a3.69,3.69,0,0,1-6.76-2v-.15A3.69,3.69,0,0,1,41,61.73h5.84L52,54l-2.57-3.85a3.66,3.66,0,0,1-.62-2v-.74a3.69,3.69,0,0,1,3.69-3.69h.15a3.69,3.69,0,0,1,3.68,3.69v.74a3.73,3.73,0,0,1-.61,2L53.18,54l5.15,7.74h5.84a3.69,3.69,0,0,1,3.69,3.68v.15A3.69,3.69,0,0,1,64.17,69.25Z" fill="none" stroke="#010101" stroke-miterlimit="10" stroke-width="0.6"/><path d="M61.9,67.08a2.73,2.73,0,0,0,5-1.52v-.15a2.73,2.73,0,0,0-2.73-2.73H59Z" fill="none" stroke="#010101" stroke-miterlimit="10" stroke-width="0.6"/><path d="M41,62.68a2.74,2.74,0,0,0-2.73,2.73v.15a2.73,2.73,0,0,0,5,1.52l2.93-4.4Z" fill="none" stroke="#010101" stroke-miterlimit="10" stroke-width="0.6"/><polygon points="48.02 61.73 57.18 61.73 52.6 54.87 48.02 61.73" fill="none" stroke="#010101" stroke-miterlimit="10" stroke-width="0.6"/><path d="M52.53,44.62a2.73,2.73,0,0,0-2.73,2.73v.74a2.73,2.73,0,0,0,.45,1.52l2.35,3.52L55,49.61a2.74,2.74,0,0,0,.46-1.52v-.74a2.73,2.73,0,0,0-2.73-2.73Z" fill="none" stroke="#010101" stroke-miterlimit="10" stroke-width="0.6"/></svg>