<svg id="a8540ab7-8bb2-4b23-85d2-59bfe01dff38" data-name="Layer 1" xmlns="http://www.w3.org/2000/svg" viewBox="0 0 100 100"><path d="M77.47,36.3V82.54H37.65V71H26.09V36.3Z" fill="#4688c8"/><path d="M68.84,21.75a2.69,2.69,0,0,0,2.69,2.69H85L68.84,8.29Z" fill="none" stroke="#010101" stroke-linecap="round" stroke-linejoin="round" stroke-width="1.53"/><path d="M68.84,8.29H17.71A2.69,2.69,0,0,0,15,11V89a2.69,2.69,0,0,0,2.69,2.69H82.29A2.69,2.69,0,0,0,85,89V24.44" fill="none" stroke="#010101" stroke-linecap="round" stroke-linejoin="round" stroke-width="1.53"/><path d="M33.85,23.09V15h4a1.32,1.32,0,0,1,1.35,1.34v5.39a1.32,1.32,0,0,1-1.35,1.34Z" fill="none" stroke="#010101" stroke-linecap="round" stroke-linejoin="round" stroke-width="1.53"/><path d="M23.09,23.09V15h4a1.31,1.31,0,0,1,1.34,1.34v1.35a1.31,1.31,0,0,1-1.34,1.34h-4" fill="none" stroke="#010101" stroke-linecap="round" stroke-linejoin="round" stroke-width="1.53"/><polyline points="44.62 23.09 44.62 15.02 50 15.02" fill="none" stroke="#010101" stroke-linecap="round" stroke-linejoin="round" stroke-width="1.53"/><line x1="44.62" y1="19.05" x2="50" y2="19.05" fill="none" stroke="#010101" stroke-linecap="round" stroke-linejoin="round" stroke-width="1.53"/><polygon points="35.2 71.53 23.09 71.53 35.2 83.64 35.2 71.53" fill="none" stroke="#010101" stroke-linecap="round" stroke-linejoin="round" stroke-width="1.53"/><polyline points="35.2 83.64 76.91 83.64 76.91 35.2 23.09 35.2 23.09 71.53" fill="none" stroke="#010101" stroke-linecap="round" stroke-linejoin="round" stroke-width="1.53"/><path d="M64.18,69.26a3.67,3.67,0,0,1-3.07-1.65l-3.29-4.92H47.39L44.1,67.61a3.69,3.69,0,0,1-6.76-2v-.15A3.69,3.69,0,0,1,41,61.73h5.84L52,54l-2.57-3.86a3.6,3.6,0,0,1-.62-2v-.75a3.69,3.69,0,0,1,3.69-3.68h.15a3.69,3.69,0,0,1,3.69,3.68v.75a3.68,3.68,0,0,1-.62,2L53.18,54l5.15,7.73h5.85a3.69,3.69,0,0,1,3.68,3.69v.15A3.69,3.69,0,0,1,64.18,69.26ZM61.9,67.08a2.73,2.73,0,0,0,5-1.51v-.15a2.73,2.73,0,0,0-2.73-2.73H59ZM41,62.69a2.73,2.73,0,0,0-2.73,2.73v.15A2.74,2.74,0,0,0,41,68.3a2.71,2.71,0,0,0,2.27-1.22l2.94-4.39Zm7-1h9.16L52.6,54.86Zm4.51-17.11a2.73,2.73,0,0,0-2.73,2.73v.75a2.71,2.71,0,0,0,.46,1.51l2.34,3.52L55,49.61a2.71,2.71,0,0,0,.46-1.51v-.75a2.74,2.74,0,0,0-2.73-2.73Z" fill="#010101" stroke="#010101" stroke-miterlimit="10" stroke-width="0.6"/></svg>