<svg id="Layer_1" data-name="Layer 1" xmlns="http://www.w3.org/2000/svg" viewBox="0 0 350 350"><defs><style>.cls-1{font-size:17.3px;font-family:HelveticaNeue-CondensedBold, Helvetica Neue;font-weight:700;}.cls-2{font-size:48px;font-family:Mont-HeavyDEMO, Mont;font-weight:800;}</style></defs><path d="M74.6,212.29h-27a8.8,8.8,0,0,1-1.26,0,1.91,1.91,0,0,1-.07-3.82c1.42-.11,2.85-.07,4.27-.08,2.36,0,2.33,0,1.86-2.36q-3-15-6-30.09c-.39-1.94.18-2.77,2.13-3,5.08-.61,10.16-1.17,15.24-1.73,1.25-.14,2,.5,2.3,1.9.93,4.8,1.83,9.6,2.75,14.4C70,194,71.28,200.62,72.51,207.2c.17.91.61,1.16,1.49,1.16,2.29,0,2.29,0,2.29-2.22,0-4.23,0-8.46,0-12.7a3,3,0,0,1,1.15-2.74c2-1.45,2.44-3.38,2.42-5.79-.1-15.78,0-31.56-.07-47.34,0-2.79.51-5.22,3.2-6.65a.9.9,0,0,0,.44-.88,12.84,12.84,0,0,1,0-1.39,1.94,1.94,0,0,1,1.89-1.82,1.89,1.89,0,0,1,1.88,1.82,7.68,7.68,0,0,1,0,1.27,1.12,1.12,0,0,0,.63,1.12c2.27,1.22,3,3.24,3,5.69,0,16.58,0,33.17,0,49.76a3.5,3.5,0,0,0,1.31,3.12c.33.25.58.62.9.88a3.64,3.64,0,0,1,1.34,3.15c-.06,4.42,0,8.85,0,13.27,0,1.12.35,1.49,1.46,1.46,2-.07,4.07,0,6.11,0a6.72,6.72,0,0,1,1.49.13,1.81,1.81,0,0,1,1.54,1.89,1.78,1.78,0,0,1-1.5,1.8,7.19,7.19,0,0,1-1.61.11Z"/><text class="cls-1" transform="translate(121.67 164.76)">SISTEMA BIBLIOTECARIO</text><text class="cls-2" transform="translate(118.67 207.76)">EBIBLIO</text></svg>